[Header]                  # Header keywords are followed by a single value
FileType htr              # single word string
DataType HTRS             # Hierarchical translations followed by rotations and Scale
FileVersion 1             # integer
NumSegments   22        # integer
NumFrames  6          # integer
DataFrameRate    60      # integer
EulerRotationOrder ZYX    # one word string
CalibrationUnits mm   # one word string
RotationUnits Degrees     # one word string
GlobalAxisofGravity Y        # character, X or Y or Z
BoneLengthAxis Y
ScaleFactor 1.0000
[SegmentNames&Hierarchy]
#CHILD         PARENT
LowerTorso	GLOBAL
MidTorso1	LowerTorso
MidTorso2	MidTorso1
UpperTorso	MidTorso2
Neck	UpperTorso
Head	Neck
LCollar	UpperTorso
LUpArm	LCollar
LLowArm	LUpArm
LHand	LLowArm
RCollar	UpperTorso
RUpArm	RCollar
RLowArm	RUpArm
RHand	RLowArm
RThigh	LowerTorso
RLowLeg	RThigh
RFoot	RLowLeg
RToe	RFoot
LThigh	LowerTorso
LLowLeg	LThigh
LFoot	LLowLeg
LToe	LFoot
[BasePosition]
#SegmentName Tx, Ty, Tz, Rx, Ry, Rz, BoneLength
LowerTorso	245.857281	950.546486	248.637529	3.098927	-0.002210	0.042162	59.711333	
MidTorso1	0.000000	59.711333	0.000000	12.937915	-0.002675	-0.030860	59.789096	
MidTorso2	0.000000	59.789096	0.000000	-8.588562	0.003459	0.011437	83.428957	
UpperTorso	0.000000	83.428957	0.000000	-7.932331	-0.001012	-0.030752	241.957510	
Neck	0.000000	241.957510	0.000000	-0.094097	0.000027	0.097203	231.829248	
Head	0.000000	231.829248	0.000000	90.077927	-0.000108	-0.089730	91.574582	
LCollar	6.813599	237.360039	0.023153	2.387721	-0.015547	-90.013255	183.371476	
LUpArm	0.000000	183.371476	0.000000	5.326590	-0.698152	6.338799	275.550262	
LLowArm	0.000000	275.550262	0.000000	0.023606	-0.000027	0.019344	209.826044	
LHand	0.000000	209.826044	0.000000	0.056212	0.000012	-0.012212	145.298309	
RCollar	-7.320367	237.102711	-0.039007	12.450709	0.004248	90.115141	167.861514	
RUpArm	0.000000	167.861514	0.000000	-6.122028	-0.820027	-2.646363	291.470253	
RLowArm	0.000000	291.470253	0.000000	0.000001	0.000000	-0.000274	217.757286	
RHand	0.000000	217.757286	0.000000	0.000373	0.000000	0.000511	137.536656	
RThigh	-124.450736	-52.205152	84.621319	5.924306	0.309605	177.207098	421.029795	
RLowLeg	0.000000	421.029795	0.000000	-15.759515	-0.017515	3.120486	365.105663	
RFoot	0.000000	365.105663	0.000000	55.897303	0.149984	-4.373210	148.323736	
RToe	0.000000	148.323736	0.000000	45.100933	2.167436	3.449341	115.306227	
LThigh	124.374466	-52.388373	84.621456	5.928259	-0.221338	-178.140447	426.796764	
LLowLeg	0.000000	426.796764	0.000000	-15.759694	0.017551	-3.120303	361.153822	
LFoot	0.000000	361.153822	0.000000	55.897848	-0.150027	4.373120	146.718976	
LToe	0.000000	146.718976	0.000000	45.100748	-2.167253	-3.449489	114.060784	
#Beginning of Data. Separated by tabs
[LowerTorso]
#Fr     Tx      Ty      Tz      Rx      Ry      Rz      SF
1070	-203.252167	0.587723	-327.483765	-0.504610	8.911365	-4.747465	1.000000	
1071	-209.656403	7.697423	-319.710114	-0.157349	11.101097	-5.293706	1.000000	
1072	-215.932724	13.198798	-311.952911	0.344834	13.310067	-5.735360	1.000000	
1073	-221.848984	16.555960	-304.225037	0.927270	15.601884	-6.121539	1.000000	
1074	-227.288925	17.324793	-296.312500	1.416428	18.026346	-6.508495	1.000000	
1075	-232.293228	15.270034	-287.847534	1.592412	20.598234	-6.948178	1.000000	
[MidTorso1]
#Fr     Tx      Ty      Tz      Rx      Ry      Rz      SF
1070	0.000000	0.000000	0.000000	4.965304	-1.754434	-0.897626	1.000000	
1071	0.000000	0.000000	0.000000	4.918453	-1.807825	-0.702676	1.000000	
1072	0.000000	0.000000	0.000000	4.779775	-1.786038	-0.505322	1.000000	
1073	0.000000	0.000000	0.000000	4.555024	-1.705670	-0.244605	1.000000	
1074	0.000000	0.000000	0.000000	4.281781	-1.563267	0.117393	1.000000	
1075	0.000000	0.000000	0.000000	4.017093	-1.373871	0.582471	1.000000	
[MidTorso2]
#Fr     Tx      Ty      Tz      Rx      Ry      Rz      SF
1070	0.000000	0.000000	0.000000	4.967321	-1.601747	-1.149488	1.000000	
1071	0.000000	0.000000	0.000000	4.921213	-1.683637	-0.964720	1.000000	
1072	0.000000	0.000000	0.000000	4.782877	-1.691535	-0.766336	1.000000	
1073	0.000000	0.000000	0.000000	4.558206	-1.650954	-0.496546	1.000000	
1074	0.000000	0.000000	0.000000	4.284663	-1.564152	-0.117338	1.000000	
1075	0.000000	0.000000	0.000000	4.019088	-1.446280	0.370828	1.000000	
[UpperTorso]
#Fr     Tx      Ty      Tz      Rx      Ry      Rz      SF
1070	0.000000	0.000000	0.000000	4.969022	-1.425162	-1.359152	1.000000	
1071	0.000000	0.000000	0.000000	4.923820	-1.531786	-1.187478	1.000000	
1072	0.000000	0.000000	0.000000	4.786043	-1.567053	-0.992112	1.000000	
1073	0.000000	0.000000	0.000000	4.561758	-1.564208	-0.719337	1.000000	
1074	0.000000	0.000000	0.000000	4.288333	-1.530710	-0.331807	1.000000	
1075	0.000000	0.000000	0.000000	4.022373	-1.481476	0.167939	1.000000	
[Neck]
#Fr     Tx      Ty      Tz      Rx      Ry      Rz      SF
1070	0.000000	0.000000	0.000000	-2.613762	-2.082722	-3.418499	1.000000	
1071	0.000000	0.000000	0.000000	-1.713320	-2.606719	-3.407968	1.000000	
1072	0.000000	0.000000	0.000000	-1.166493	-3.301736	-3.161577	1.000000	
1073	0.000000	0.000000	0.000000	-0.909953	-4.209200	-2.914783	1.000000	
1074	0.000000	0.000000	0.000000	-0.824383	-5.389172	-2.840420	1.000000	
1075	0.000000	0.000000	0.000000	-0.800166	-6.827301	-2.969444	1.000000	
[Head]
#Fr     Tx      Ty      Tz      Rx      Ry      Rz      SF
1070	0.000000	0.000000	0.000000	0.693567	1.643142	0.014173	1.000000	
1071	0.000000	0.000000	0.000000	0.968232	1.291505	0.016814	1.000000	
1072	0.000000	0.000000	0.000000	1.264072	0.850114	0.031781	1.000000	
1073	0.000000	0.000000	0.000000	1.505669	0.325160	0.043793	1.000000	
1074	0.000000	0.000000	0.000000	1.636463	-0.188695	0.040490	1.000000	
1075	0.000000	0.000000	0.000000	1.576750	-0.580404	0.015641	1.000000	
[LCollar]
#Fr     Tx      Ty      Tz      Rx      Ry      Rz      SF
1070	0.000000	0.000000	0.000000	6.852360	1.598756	-13.070553	1.000000	
1071	0.000000	0.000000	0.000000	6.433494	1.449525	-12.643939	1.000000	
1072	0.000000	0.000000	0.000000	5.934540	1.295663	-12.271801	1.000000	
1073	0.000000	0.000000	0.000000	5.542896	1.178116	-11.961829	1.000000	
1074	0.000000	0.000000	0.000000	5.450497	1.124772	-11.624654	1.000000	
1075	0.000000	0.000000	0.000000	5.711721	1.133890	-11.191067	1.000000	
[LUpArm]
#Fr     Tx      Ty      Tz      Rx      Ry      Rz      SF
1070	0.000000	0.000000	0.000000	43.768166	6.037078	-54.431808	1.000000	
1071	0.000000	0.000000	0.000000	44.731388	6.505410	-54.527336	1.000000	
1072	0.000000	0.000000	0.000000	45.792503	6.890010	-54.290699	1.000000	
1073	0.000000	0.000000	0.000000	46.791149	7.044712	-53.875694	1.000000	
1074	0.000000	0.000000	0.000000	47.552925	6.959887	-53.449547	1.000000	
1075	0.000000	0.000000	0.000000	47.987419	6.693331	-53.066536	1.000000	
[LLowArm]
#Fr     Tx      Ty      Tz      Rx      Ry      Rz      SF
1070	0.000000	0.000000	0.000000	114.679977	-0.011138	-0.017490	1.000000	
1071	0.000000	0.000000	0.000000	115.426544	-0.011070	-0.017635	1.000000	
1072	0.000000	0.000000	0.000000	115.225067	-0.011088	-0.017596	1.000000	
1073	0.000000	0.000000	0.000000	114.148949	-0.011186	-0.017386	1.000000	
1074	0.000000	0.000000	0.000000	112.414413	-0.011334	-0.017044	1.000000	
1075	0.000000	0.000000	0.000000	110.327423	-0.011499	-0.016627	1.000000	
[LHand]
#Fr     Tx      Ty      Tz      Rx      Ry      Rz      SF
1070	0.000000	0.000000	0.000000	12.347797	6.256753	12.041732	1.000000	
1071	0.000000	0.000000	0.000000	13.283445	7.139211	12.317873	1.000000	
1072	0.000000	0.000000	0.000000	14.118557	8.317499	12.697127	1.000000	
1073	0.000000	0.000000	0.000000	14.525074	9.117208	13.059117	1.000000	
1074	0.000000	0.000000	0.000000	14.329206	9.074155	13.176356	1.000000	
1075	0.000000	0.000000	0.000000	13.614489	8.021398	12.837853	1.000000	
[RCollar]
#Fr     Tx      Ty      Tz      Rx      Ry      Rz      SF
1070	0.000000	0.000000	0.000000	8.146660	-1.720405	11.844912	1.000000	
1071	0.000000	0.000000	0.000000	8.009297	-1.701797	11.918338	1.000000	
1072	0.000000	0.000000	0.000000	7.776279	-1.655153	11.942893	1.000000	
1073	0.000000	0.000000	0.000000	7.632496	-1.612411	11.858898	1.000000	
1074	0.000000	0.000000	0.000000	7.612100	-1.578315	11.645713	1.000000	
1075	0.000000	0.000000	0.000000	7.694340	-1.558337	11.381146	1.000000	
[RUpArm]
#Fr     Tx      Ty      Tz      Rx      Ry      Rz      SF
1070	0.000000	0.000000	0.000000	43.288822	3.758732	47.863495	1.000000	
1071	0.000000	0.000000	0.000000	43.213718	4.154207	47.134956	1.000000	
1072	0.000000	0.000000	0.000000	42.984009	4.733062	46.006664	1.000000	
1073	0.000000	0.000000	0.000000	42.479641	5.606823	44.479614	1.000000	
1074	0.000000	0.000000	0.000000	41.627712	6.835046	42.623817	1.000000	
1075	0.000000	0.000000	0.000000	40.468388	8.344487	40.475155	1.000000	
[RLowArm]
#Fr     Tx      Ty      Tz      Rx      Ry      Rz      SF
1070	0.000000	0.000000	0.000000	122.033905	0.000167	0.000231	1.000000	
1071	0.000000	0.000000	0.000000	121.616486	0.000167	0.000230	1.000000	
1072	0.000000	0.000000	0.000000	120.655472	0.000169	0.000227	1.000000	
1073	0.000000	0.000000	0.000000	119.228424	0.000170	0.000223	1.000000	
1074	0.000000	0.000000	0.000000	117.393669	0.000172	0.000218	1.000000	
1075	0.000000	0.000000	0.000000	115.217804	0.000174	0.000213	1.000000	
[RHand]
#Fr     Tx      Ty      Tz      Rx      Ry      Rz      SF
1070	0.000000	0.000000	0.000000	-3.713127	-8.796586	-19.307957	1.000000	
1071	0.000000	0.000000	0.000000	-3.700224	-5.284699	-19.225990	1.000000	
1072	0.000000	0.000000	0.000000	-3.790224	-1.108050	-19.127018	1.000000	
1073	0.000000	0.000000	0.000000	-3.884340	2.646330	-19.057381	1.000000	
1074	0.000000	0.000000	0.000000	-3.796431	5.157827	-18.958563	1.000000	
1075	0.000000	0.000000	0.000000	-3.507420	6.168682	-18.953960	1.000000	
[RThigh]
#Fr     Tx      Ty      Tz      Rx      Ry      Rz      SF
1070	0.000000	0.000000	0.000000	20.734592	20.368786	6.568872	1.000000	
1071	0.000000	0.000000	0.000000	20.200987	18.128704	7.062035	1.000000	
1072	0.000000	0.000000	0.000000	19.572159	14.892766	7.004197	1.000000	
1073	0.000000	0.000000	0.000000	19.066631	10.943482	6.333128	1.000000	
1074	0.000000	0.000000	0.000000	18.782803	7.116292	5.174294	1.000000	
1075	0.000000	0.000000	0.000000	18.676973	4.890784	4.012266	1.000000	
[RLowLeg]
#Fr     Tx      Ty      Tz      Rx      Ry      Rz      SF
1070	0.000000	0.000000	0.000000	-41.683708	0.000027	-0.000015	1.000000	
1071	0.000000	0.000000	0.000000	-34.041389	0.000023	-0.000011	1.000000	
1072	0.000000	0.000000	0.000000	-26.208977	0.000018	-0.000007	1.000000	
1073	0.000000	0.000000	0.000000	-19.010927	0.000014	-0.000004	1.000000	
1074	0.000000	0.000000	0.000000	-13.424755	0.000010	-0.000003	1.000000	
1075	0.000000	0.000000	0.000000	-10.439306	0.000008	-0.000002	1.000000	
[RFoot]
#Fr     Tx      Ty      Tz      Rx      Ry      Rz      SF
1070	0.000000	0.000000	0.000000	-1.944325	6.454014	6.051680	1.000000	
1071	0.000000	0.000000	0.000000	-2.761919	8.024736	5.668800	1.000000	
1072	0.000000	0.000000	0.000000	-4.871539	9.493990	4.263760	1.000000	
1073	0.000000	0.000000	0.000000	-8.574779	10.909894	2.056224	1.000000	
1074	0.000000	0.000000	0.000000	-13.185290	12.198793	-0.274581	1.000000	
1075	0.000000	0.000000	0.000000	-16.893681	12.676155	-1.639514	1.000000	
[RToe]
#Fr     Tx      Ty      Tz      Rx      Ry      Rz      SF
1070	0.000000	0.000000	0.000000	8.300290	0.000003	0.000004	1.000000	
1071	0.000000	0.000000	0.000000	7.672875	0.000003	0.000004	1.000000	
1072	0.000000	0.000000	0.000000	6.692043	0.000003	0.000003	1.000000	
1073	0.000000	0.000000	0.000000	5.798226	0.000002	0.000003	1.000000	
1074	0.000000	0.000000	0.000000	5.458503	0.000002	0.000003	1.000000	
1075	0.000000	0.000000	0.000000	5.850657	0.000002	0.000003	1.000000	
[LThigh]
#Fr     Tx      Ty      Tz      Rx      Ry      Rz      SF
1070	0.000000	0.000000	0.000000	13.817204	-14.637753	-2.419669	1.000000	
1071	0.000000	0.000000	0.000000	13.951901	-14.379219	-1.658800	1.000000	
1072	0.000000	0.000000	0.000000	14.551914	-14.318238	-1.073593	1.000000	
1073	0.000000	0.000000	0.000000	15.563325	-14.496874	-0.681325	1.000000	
1074	0.000000	0.000000	0.000000	16.775438	-14.931791	-0.425732	1.000000	
1075	0.000000	0.000000	0.000000	17.895527	-15.500806	-0.177430	1.000000	
[LLowLeg]
#Fr     Tx      Ty      Tz      Rx      Ry      Rz      SF
1070	0.000000	0.000000	0.000000	-23.156828	0.000011	-0.000002	1.000000	
1071	0.000000	0.000000	0.000000	-22.442554	0.000011	-0.000002	1.000000	
1072	0.000000	0.000000	0.000000	-22.258448	0.000010	-0.000002	1.000000	
1073	0.000000	0.000000	0.000000	-22.655115	0.000011	-0.000002	1.000000	
1074	0.000000	0.000000	0.000000	-23.651094	0.000011	-0.000002	1.000000	
1075	0.000000	0.000000	0.000000	-25.210739	0.000012	-0.000003	1.000000	
[LFoot]
#Fr     Tx      Ty      Tz      Rx      Ry      Rz      SF
1070	0.000000	0.000000	0.000000	-1.961955	-2.864759	6.539814	1.000000	
1071	0.000000	0.000000	0.000000	-3.217978	-2.648050	4.817121	1.000000	
1072	0.000000	0.000000	0.000000	-4.150550	-2.393040	3.071577	1.000000	
1073	0.000000	0.000000	0.000000	-4.629495	-1.865006	1.480603	1.000000	
1074	0.000000	0.000000	0.000000	-4.474551	-0.909619	0.104859	1.000000	
1075	0.000000	0.000000	0.000000	-3.613995	0.447109	-1.030677	1.000000	
[LToe]
#Fr     Tx      Ty      Tz      Rx      Ry      Rz      SF
1070	0.000000	0.000000	0.000000	2.018721	0.000008	0.000000	1.000000	
1071	0.000000	0.000000	0.000000	1.723375	0.000007	0.000000	1.000000	
1072	0.000000	0.000000	0.000000	1.553656	0.000006	0.000000	1.000000	
1073	0.000000	0.000000	0.000000	1.572958	0.000006	0.000000	1.000000	
1074	0.000000	0.000000	0.000000	1.693616	0.000007	0.000000	1.000000	
1075	0.000000	0.000000	0.000000	1.857031	0.000007	0.000000	1.000000	
[EndOfFile]
